<svg version="1.1"
	 xmlns="http://www.w3.org/2000/svg" xmlns:xlink="http://www.w3.org/1999/xlink" xmlns:a="http://ns.adobe.com/AdobeSVGViewerExtensions/3.0/"
	 x="0px" y="0px" width="20px" height="20px" viewBox="0 0 20 20" enable-background="new 0 0 20 20" xml:space="preserve">
<defs>
</defs>
<path d="M19.9,17.9L14,11.9c0.8-1.2,1.3-2.7,1.3-4.3c0-4.2-3.4-7.6-7.6-7.6S0,3.4,0,7.6c0,4.2,3.4,7.6,7.6,7.6
	c1.6,0,3.1-0.5,4.3-1.3l5.9,5.9c0.2,0.2,0.4,0.2,0.6,0l1.4-1.4C20,18.3,20,18,19.9,17.9z M2.9,7.6C2.9,5,5,2.9,7.6,2.9
	s4.8,2.1,4.8,4.8c0,2.6-2.1,4.8-4.8,4.8S2.9,10.3,2.9,7.6z"/>
</svg>
